<svg xmlns="http://www.w3.org/2000/svg" viewBox="0 0 512 512">
  <defs>
    <linearGradient id="background" x1="0" y1="0" x2="1" y2="1">
      <stop offset="0" stop-color="#160b3b"/>
      <stop offset="0.45" stop-color="#5b1fa6"/>
      <stop offset="1" stop-color="#ff4f81"/>
    </linearGradient>
    <radialGradient id="sun" cx="50%" cy="50%" r="50%">
      <stop offset="0" stop-color="#fff7b2"/>
      <stop offset="0.35" stop-color="#ffbd3e"/>
      <stop offset="1" stop-color="#ff5b65" stop-opacity="0"/>
    </radialGradient>
    <linearGradient id="wave-a" x1="0" y1="0" x2="1" y2="0">
      <stop offset="0" stop-color="#00e5d4"/>
      <stop offset="0.55" stop-color="#5fe7ff"/>
      <stop offset="1" stop-color="#caff65"/>
    </linearGradient>
    <linearGradient id="wave-b" x1="0" y1="1" x2="1" y2="0">
      <stop offset="0" stop-color="#ff336d"/>
      <stop offset="0.55" stop-color="#ff8c42"/>
      <stop offset="1" stop-color="#ffe66d"/>
    </linearGradient>
  </defs>
  <rect width="512" height="512" fill="url(#background)"/>
  <circle cx="390" cy="118" r="180" fill="url(#sun)"/>
  <path d="M-40 292 C86 180 160 390 286 270 C376 184 438 212 566 112 L566 540 L-40 540 Z" fill="url(#wave-a)" opacity="0.94"/>
  <path d="M-46 410 C76 300 166 486 282 362 C390 246 458 344 570 250 L570 540 L-46 540 Z" fill="url(#wave-b)" opacity="0.9"/>
  <circle cx="118" cy="132" r="68" fill="#8378ff" opacity="0.72"/>
  <circle cx="92" cy="112" r="24" fill="#ffffff" opacity="0.52"/>
  <path d="M164 0 L512 0 L512 92 C386 62 282 118 164 0 Z" fill="#ff5da8" opacity="0.35"/>
</svg>
